# xmcd
#
# Track frame offsets: 
#        150
#        17265
#        34914
#        50040
#        63301
#        79025
#        95025
#        108647
#        125041
#        141281
#        156131
#        171966
#        186483
#        203552
#        219523
#        234430
#        249433
#        263089
#        279033
#        294184
#        312571
#
# Disc length: 4375 seconds
#
# Revision: 0
# Processed by: cddbd v1.5.2PL0 Copyright (c) Steve Scherf et al.
# Submitted via: ExactAudioCopy v0.99pb4
#
DISCID=30111515
DTITLE=Various Artist - Future Trance Vol. 57 - CD1
DYEAR=2011
DGENRE=Trance
TTITLE0=Rocco - Holy Ground
TTITLE1=Ron:Bon:Beat Project - Hello
TTITLE2=Brooklyn Bounce - The Music's Got Me
TTITLE3=Giorno - I Clear The Area
TTITLE4=Shaun Baker - Addiction
TTITLE5=Jan Wayne - Bring Me to Life
TTITLE6=Master Blaster - Back To The Sunshine
TTITLE7=Jens O. - Hold It Against Me
TTITLE8=89ers - Go Go Go Go!
TTITLE9=John Karen - Take Me To The Limit
TTITLE10=Money-G - Jeanny 2011
TTITLE11=Rob and Chris - Eskalation
TTITLE12=Apollo - For You
TTITLE13=Topmodelz - My Paradise
TTITLE14=Davis Redfield - Sun Drops Down
TTITLE15=Ti-Mo - 2 The Back
TTITLE16=Sunset Project - Nessaja
TTITLE17=Sam Walkertone - To Nowhere
TTITLE18=Alex M. - Por Que No?
TTITLE19=Escon - Angel Eyes
TTITLE20=Scotty - Sundown
EXTD=
EXTT0=
EXTT1=
EXTT2=
EXTT3=
EXTT4=
EXTT5=
EXTT6=
EXTT7=
EXTT8=
EXTT9=
EXTT10=
EXTT11=
EXTT12=
EXTT13=
EXTT14=
EXTT15=
EXTT16=
EXTT17=
EXTT18=
EXTT19=
EXTT20=
PLAYORDER=
